# xmcd CD database file
#
# Track frame offsets:
#	150
#	17911
#	35023
#	50911
#	68044
#	82156
#	99015
#	112713
#	134492
#	151311
#	168024
#	194863
#
# Disc length: 3742 seconds
#
# Revision: 0
# Processed by: cddbd v1.5.1PL0 Copyright (c) Steve Scherf et al.
# Submitted via: CDex 1.51
#
DISCID=9f0e9c0c
DTITLE=Ana Johnsson - Ana Johnsson   The Way I Am
DYEAR=2004
DGENRE=Rock
TTITLE0=We Are (Video Version)
TTITLE1=Don't Cry For Pain (Album Version)
TTITLE2=The Way I Am (Album Version)
TTITLE3=I'm Stupid (Album Version)
TTITLE4=Life (Album Version)
TTITLE5=6 Feet Under (Album Version)
TTITLE6=Coz I Can (Re-mix)
TTITLE7=Crest Of The Way (Album Version)
TTITLE8=L.A. (Album Version)
TTITLE9=Now It's Gone (Album Version)
TTITLE10=Here I Go Again (Album Version)
TTITLE11=DATA
EXTD=YEAR: 2004
EXTT0=
EXTT1=
EXTT2=
EXTT3=
EXTT4=
EXTT5=
EXTT6=
EXTT7=
EXTT8=
EXTT9=
EXTT10=
EXTT11=
PLAYORDER=
